<svg t="1691713401317" class="icon" viewBox="0 0 1024 1024" version="1.1" xmlns="http://www.w3.org/2000/svg" p-id="1023" width="16" height="16"><path d="M277.333333 917.333333V384h64v533.333333h-64z" fill="#1AB370" p-id="1024"></path><path d="M602.752 64c-58.090667 0-108.757333 38.442667-121.813333 93.248l-6.506667 31.445333-4.736 22.122667-4.010667 17.770667-2.922666 12.202666-1.642667 6.293334a171.370667 171.370667 0 0 1-0.725333 2.56c-8.170667 28.224-40.234667 65.749333-63.146667 76.8-2.304 1.109333-6.912 2.133333-13.162667 3.050666l-6.784 0.874667-7.68 0.789333-8.512 0.725334-9.130666 0.597333-9.6 0.512-14.976 0.597333-10.133334 0.234667-10.090666 0.128H193.557333C145.706667 333.973333 106.666667 372.373333 106.666667 420.053333v432.533334C106.666667 900.266667 145.621333 938.666667 193.557333 938.666667h506.624c97.194667 0 179.946667-70.165333 194.453334-165.269334l42.410666-278.378666 0.64-4.8c9.856-82.901333-55.829333-156.096-140.8-156.096l-84.074666-0.021334 0.682666-3.114666c2.282667-10.88 4.522667-22.634667 6.677334-35.2 4.757333-27.754667 8.704-57.621333 11.648-89.429334 6.229333-68.629333-42.304-131.242667-110.933334-140.864l-4.821333-0.576A91.605333 91.605333 0 0 0 602.752 64z m0 64c1.792 0 3.562667 0.128 5.354667 0.405333a66.602667 66.602667 0 0 1 59.968 72.106667 1097.6 1097.6 0 0 1-10.986667 84.48l-3.050667 16.981333c-2.090667 10.901333-4.202667 20.992-6.336 30.208l-3.349333 13.738667-2.026667 7.637333-13.610666 44.565334h168.149333c47.701333 0 83.946667 41.386667 76.928 87.253333l-42.410667 278.4C821.653333 827.392 765.930667 874.666667 700.16 874.666667H193.557333C180.757333 874.666667 170.666667 864.704 170.666667 852.586667V420.053333c0-12.138667 10.112-22.08 22.890666-22.08h113.856c16.597333-0.128 35.2-0.682667 53.205334-1.92 29.824-2.069333 50.709333-5.290667 64.533333-12.032 39.082667-18.816 83.477333-70.762667 96.704-116.565333l1.834667-6.613333 2.026666-8.021334 3.413334-14.506666 3.072-13.802667 4.864-22.656 5.589333-27.264C547.84 147.712 572.949333 128 602.752 128z" fill="#333333" p-id="1025"></path></svg>