<svg t="1691835101457" class="icon" viewBox="0 0 1024 1024" version="1.1" xmlns="http://www.w3.org/2000/svg" p-id="50965" width="200" height="200"><path d="M807.936 426.496c6.144-10.24-0.512-20.48-10.24-24.576-56.832-23.552-119.808-8.192-178.688-19.968-9.216-29.696-31.232-58.88-47.104-84.992-18.944-31.744-40.96-61.952-65.024-90.112-7.68-8.704-23.04-5.632-28.672 3.584-35.328 57.856-94.72 109.056-107.52 178.176-24.576-6.144-52.736 1.536-76.8 7.168-38.912 8.704-75.776 20.992-116.736 17.92-6.144-1.024-11.776 3.584-12.288 9.216v4.096c-3.584 3.584-5.12 8.704-3.072 13.824 12.288 28.16 43.52 52.224 65.536 73.216 26.624 24.576 54.784 47.104 84.992 67.584-25.088 68.096-31.744 143.36-29.696 216.064 0.512 11.264 13.824 20.992 24.576 13.824 56.32-37.888 117.76-66.56 182.784-86.016 2.048-0.512 3.584-1.536 5.12-2.56 68.096 16.896 130.048 50.688 196.096 72.704 10.752 3.584 19.456-5.632 20.48-15.36 7.168-60.928 6.656-132.096-13.312-191.488 14.336-19.456 26.624-42.496 40.448-61.44 23.552-33.28 48.128-65.536 69.12-100.864z" fill="#f4ea2a" p-id="50966"></path><path d="M807.936 426.496c6.144-10.24-0.512-20.48-10.24-24.576-56.832-23.552-119.808-8.192-178.688-19.968-9.216-29.696-31.232-58.88-47.104-84.992-18.944-31.744-40.96-61.952-65.024-90.112-7.68-8.704-23.04-5.632-28.672 3.584-35.328 57.856-94.72 109.056-107.52 178.176-24.576-6.144-52.736 1.536-76.8 7.168-38.912 8.704-75.776 20.992-116.736 17.92-6.144-1.024-11.776 3.584-12.288 9.216v4.096c-3.584 3.584-5.12 8.704-3.072 13.824 12.288 28.16 43.52 52.224 65.536 73.216 26.624 24.576 54.784 47.104 84.992 67.584-25.088 68.096-31.744 143.36-29.696 216.064 0.512 11.264 13.824 20.992 24.576 13.824 56.32-37.888 117.76-66.56 182.784-86.016 2.048-0.512 3.584-1.536 5.12-2.56 68.096 16.896 130.048 50.688 196.096 72.704 10.752 3.584 19.456-5.632 20.48-15.36 7.168-60.928 6.656-132.096-13.312-191.488 14.336-19.456 26.624-42.496 40.448-61.44 23.552-33.28 48.128-65.536 69.12-100.864z m-151.04 165.888c-1.024 8.704 4.608 17.408 13.312 18.944 11.776 47.104 13.824 98.304 10.752 146.944-61.44-20.992-119.296-49.152-183.808-58.88-4.096-4.608-10.24-6.656-15.872-4.608-58.88 16.384-115.2 40.96-166.4 73.728 0-65.024 8.192-130.56 30.72-192 2.56-5.632 0-12.8-5.632-15.36-1.536-2.56-3.584-4.608-5.632-6.144-29.184-19.456-56.832-40.448-82.944-63.488-17.92-15.36-35.328-34.816-54.272-51.2 23.04 0 46.08-3.072 68.608-8.192 36.352-7.168 73.216-12.8 110.592-16.384 6.656 0 11.776-5.632 11.776-12.288v-1.536c1.536-1.024 3.072-2.56 4.096-4.608 25.6-55.296 68.096-98.816 103.936-147.456 18.432 25.088 35.84 51.2 51.712 77.824 15.872 26.624 27.136 58.368 48.64 80.896 5.12 6.144 14.336 6.656 20.48 1.024 0 0 0.512 0 0.512-0.512 49.152 10.24 103.424 2.56 151.04 16.896-18.432 28.16-38.912 55.296-58.88 82.944-17.408 23.552-48.64 54.272-52.736 83.456z m15.36-289.28c3.584-14.336 13.824-25.088 25.088-34.816 5.632-5.12-2.048-14.848-8.192-10.24-14.336 10.752-26.112 23.552-29.696 41.984-1.536 8.192 10.752 11.264 12.8 3.072z m156.672 313.856c-18.944-10.752-39.936-16.384-60.928-24.064-3.584-1.024-7.168 1.536-8.192 4.608-0.512 2.56 0.512 5.632 3.072 7.168 19.968 9.216 40.448 15.872 60.928 24.064 7.168 3.072 11.776-8.192 5.12-11.776z m-328.192 154.112c-10.752 16.896-9.216 38.4-6.144 56.832 1.024 3.072 4.096 4.608 7.68 3.584 1.536-0.512 3.072-2.048 3.584-3.584 3.072-17.408 3.584-35.328 6.144-52.736 0.512-3.072-1.536-6.656-4.608-7.168-2.56 0-5.12 1.024-6.656 3.072z m-247.808-168.96c-19.968 5.632-40.448 12.288-58.368 23.552-6.144 4.096-2.56 14.848 5.12 12.288 18.944-6.656 36.864-16.896 55.808-24.064 3.072-1.024 4.608-4.608 3.584-7.68-0.512-3.072-3.584-4.608-6.144-4.096z m3.584-325.632c25.088 10.24 44.544 28.672 65.024 46.592 2.56 2.048 6.144 1.536 8.192-0.512 2.048-2.048 2.048-5.12 0-7.168-19.456-21.504-37.888-44.544-67.072-52.736-8.704-3.072-14.336 10.24-6.144 13.824z" fill="#f4ea2a" p-id="50967"></path></svg>